<?xml version="1.0" standalone="no"?>
<!DOCTYPE svg PUBLIC "-//W3C//DTD SVG 20010904//EN"
 "http://www.w3.org/TR/2001/REC-SVG-20010904/DTD/svg10.dtd">
<svg version="1.0" xmlns="http://www.w3.org/2000/svg"
 width="228.000000pt" height="228.000000pt" viewBox="0 0 228.000000 228.000000"
 preserveAspectRatio="xMidYMid meet">
<metadata>
Created by potrace 1.11, written by Peter Selinger 2001-2013
</metadata>
<g transform="translate(0.000000,228.000000) scale(0.100000,-0.100000)"
fill="#000000" stroke="none">
<path d="M0 1140 l0 -1140 1140 0 1140 0 0 1140 0 1140 -1140 0 -1140 0 0
-1140z m1036 765 c12 -8 24 -11 28 -8 3 3 6 1 6 -5 0 -15 -17 -16 -25 -2 -3 6
-26 10 -51 10 -28 0 -43 4 -39 10 9 15 58 12 81 -5z m144 -5 c12 -8 11 -10 -7
-10 -12 0 -29 -7 -38 -16 -9 -9 -18 -14 -21 -11 -6 6 32 47 44 47 4 0 14 -5
22 -10z m163 -4 c3 -8 3 -16 0 -19 -8 -9 -53 15 -47 24 8 14 41 10 47 -5z
m-338 -40 c11 -7 28 -10 39 -7 29 11 176 -26 176 -44 0 -9 -80 -85 -80 -77 -1
4 -12 -13 -25 -38 l-23 -45 -7 30 c-4 17 -8 34 -9 39 -1 5 -9 1 -18 -8 -9 -9
-23 -16 -32 -16 -8 0 -18 -4 -21 -10 -3 -5 -11 -10 -16 -10 -6 0 -7 4 -4 10 3
6 -1 7 -9 4 -11 -4 -13 -11 -6 -24 8 -14 5 -16 -15 -12 -15 2 -25 0 -25 -7 0
-6 -7 -11 -15 -11 -18 0 -19 9 -2 24 7 6 10 10 8 9 -2 -1 -12 2 -23 8 -14 8
-17 14 -9 23 9 10 6 12 -14 8 -31 -5 -33 13 -2 23 13 4 17 8 10 11 -7 3 -24
-3 -37 -14 -23 -18 -24 -20 -8 -35 10 -11 12 -17 4 -17 -7 0 -12 5 -12 11 0 5
-4 7 -10 4 -5 -3 -10 3 -10 14 0 12 7 21 15 21 18 0 20 20 3 21 -7 0 -3 5 10
11 26 13 30 30 5 22 -15 -5 -15 -4 -3 4 8 6 17 9 21 6 4 -2 10 0 14 6 3 5 15
10 26 10 11 0 18 4 15 9 -3 5 1 11 9 15 8 3 15 2 15 -3 0 -10 55 -37 84 -43
38 -6 25 18 -19 37 -52 21 -64 33 -44 46 19 12 21 11 44 -5z m-145 -3 c0 -10
-32 -43 -42 -43 -13 0 -9 38 5 43 18 8 37 8 37 0z m594 -17 c-21 -15 -30 -14
-19 3 3 6 14 11 23 11 13 0 13 -2 -4 -14z m-165 -42 c31 -39 26 -47 -14 -22
-36 24 -46 48 -21 48 8 0 24 -12 35 -26z m-579 12 c0 -3 -24 -17 -52 -31 l-53
-25 33 30 c27 25 72 41 72 26z m902 -48 c-15 -15 -26 -4 -18 18 5 13 9 15 18
6 9 -9 9 -15 0 -24z m-826 -32 c3 -13 4 -33 2 -45 -3 -19 -6 -17 -26 14 -13
18 -21 39 -17 44 11 19 34 12 41 -13z m730 -37 c19 -22 19 -22 -3 -10 -24 12
-39 31 -25 31 5 0 17 -10 28 -21z m213 -3 c10 -11 9 -14 -4 -12 -8 1 -21 8
-27 14 -9 9 -8 12 4 12 8 0 21 -6 27 -14z m-1139 -27 c-14 -11 -33 -30 -42
-42 -24 -30 -22 -9 2 31 13 21 27 32 42 32 l23 -1 -25 -20z m800 -56 c-1 -10
-9 -34 -20 -53 l-19 -35 -1 46 c0 25 3 49 7 52 13 13 33 7 33 -10z m-342 -228
c57 -7 95 -20 100 -34 3 -8 0 -11 -7 -7 -6 4 -11 2 -11 -5 0 -9 -24 -10 -97
-5 -111 7 -140 13 -146 29 -3 8 10 13 35 14 21 2 47 7 56 12 9 5 20 7 24 4 5
-2 25 -6 46 -8z m-555 -219 c38 -25 145 -56 245 -72 61 -10 195 -18 360 -21
l263 -6 -31 -26 -32 -26 109 6 c97 6 223 31 298 59 15 6 30 9 32 6 2 -2 -26
-14 -64 -26 -37 -11 -80 -28 -95 -36 -16 -8 -28 -13 -28 -10 0 3 -19 -5 -42
-18 -24 -13 -62 -29 -85 -36 -24 -7 -43 -16 -43 -20 0 -4 50 11 112 32 61 21
113 37 115 34 2 -2 -47 -21 -109 -42 -62 -21 -156 -60 -208 -86 -52 -26 -86
-41 -75 -32 11 8 50 29 87 47 70 34 95 58 31 30 -139 -60 -209 -104 -197 -125
4 -6 -13 1 -37 16 -97 59 -203 107 -369 166 -222 78 -271 101 -294 140 -10 17
-16 33 -14 34 5 5 43 25 46 26 1 0 13 -6 25 -14z m350 -9 c9 -1 16 -5 14 -10
-1 -5 -6 -8 -10 -8 -4 1 -23 1 -42 1 -26 0 -33 4 -29 14 4 9 14 13 27 9 12 -3
30 -6 40 -6z m600 -124 c-7 -2 -19 -2 -25 0 -7 3 -2 5 12 5 14 0 19 -2 13 -5z
m-976 -183 c-4 -15 0 -20 14 -20 10 0 24 -9 31 -20 7 -11 23 -20 36 -20 12 0
45 -11 72 -25 40 -20 54 -23 76 -15 22 9 39 6 93 -17 58 -24 78 -27 160 -25
82 1 97 -1 124 -20 43 -30 97 -34 146 -8 46 23 89 26 116 7 15 -12 30 -10 102
13 46 15 86 30 90 33 11 12 42 8 73 -8 25 -13 30 -13 30 -1 0 7 30 29 68 49
56 29 71 33 92 25 16 -6 20 -12 12 -15 -7 -3 -24 -23 -38 -44 -35 -56 -61 -65
-131 -49 l-57 14 -67 -37 c-79 -43 -120 -46 -163 -14 -54 41 -65 41 -142 1
l-72 -37 -45 37 c-53 44 -77 45 -142 6 -76 -45 -137 -38 -194 24 -27 29 -63
33 -101 11 -36 -21 -43 -19 -91 21 -32 27 -50 35 -71 32 -27 -4 -28 -3 -28 36
0 31 -3 37 -12 28 -19 -19 -35 -14 -42 15 -8 29 5 43 43 43 18 0 22 -4 18 -20z
m1403 -20 c0 -3 -9 -16 -19 -29 l-18 -24 1 31 c1 22 6 30 19 29 9 -1 17 -4 17
-7z m-814 -210 c13 0 33 -5 43 -12 18 -11 18 -13 3 -25 -18 -13 -72 -17 -108
-7 -15 4 -20 12 -17 24 5 20 46 43 51 29 2 -5 15 -9 28 -9z"/>
<path d="M545 1090 c27 -12 43 -12 25 0 -8 5 -22 9 -30 9 -10 0 -8 -3 5 -9z"/>
<path d="M605 1070 c11 -5 27 -9 35 -9 9 0 8 4 -5 9 -11 5 -27 9 -35 9 -9 0
-8 -4 5 -9z"/>
</g>
</svg>
